<svg width="64" height="64" viewBox="0 0 64 64" fill="none" xmlns="http://www.w3.org/2000/svg">
<circle cx="32" cy="32" r="32" fill="#B89869"/>
<path d="M18.6667 22.4H16V30.4H16.0133L16 44.8C16 46.56 17.2 48 18.6667 48H42.6667V44.8H18.6667V22.4ZM25.3333 36.8H44L39.3333 29.6L36 34.416L31.3333 27.2L25.3333 36.8ZM45.3333 19.2H34.6667L32 16H24C22.5333 16 21.3467 17.44 21.3467 19.2L21.3333 38.4C21.3333 40.16 22.5333 41.6 24 41.6H45.3333C46.8 41.6 48 40.16 48 38.4V22.4C48 20.64 46.8 19.2 45.3333 19.2ZM45.3333 38.4H24V19.2H30.8933L32.7733 21.456L33.56 22.4H45.3333V38.4Z" fill="#FBFBFB"/>
</svg>
