<svg width="64" height="64" viewBox="0 0 64 64" fill="none" xmlns="http://www.w3.org/2000/svg">
<circle cx="32" cy="32" r="32" fill="#B89869"/>
<path d="M24.8889 16C26.1855 16 27.429 16.5151 28.3459 17.4319C29.2627 18.3488 29.7778 19.5923 29.7778 20.8889C29.7778 22.1855 29.2627 23.429 28.3459 24.3459C27.429 25.2627 26.1855 25.7778 24.8889 25.7778C23.5923 25.7778 22.3488 25.2627 21.4319 24.3459C20.5151 23.429 20 22.1855 20 20.8889C20 19.5923 20.5151 18.3488 21.4319 17.4319C22.3488 16.5151 23.5923 16 24.8889 16ZM24.8889 17.7778C24.0638 17.7778 23.2724 18.1056 22.689 18.689C22.1056 19.2724 21.7778 20.0638 21.7778 20.8889C21.7778 21.714 22.1056 22.5053 22.689 23.0888C23.2724 23.6722 24.0638 24 24.8889 24C25.714 24 26.5053 23.6722 27.0888 23.0888C27.6722 22.5053 28 21.714 28 20.8889C28 20.0638 27.6722 19.2724 27.0888 18.689C26.5053 18.1056 25.714 17.7778 24.8889 17.7778ZM26.1031 27.5556H18.6667C17.9594 27.5556 17.2811 27.8365 16.781 28.3366C16.281 28.8367 16 29.515 16 30.2222V31.1111C16 33.9324 18.144 36.8213 21.8933 37.8382C22.2311 37.232 22.7093 36.7111 23.2818 36.3218C19.7333 35.7582 17.7778 33.3493 17.7778 31.1111V30.2222C17.7778 29.9865 17.8714 29.7604 18.0381 29.5937C18.2048 29.427 18.4309 29.3333 18.6667 29.3333H25.4667C25.5947 28.704 25.8116 28.1067 26.1031 27.5556ZM32 25.7778C30.9353 25.7759 29.8993 26.1224 29.05 26.7644C28.2007 27.4064 27.5847 28.3086 27.296 29.3333C27.1062 30.0047 27.0623 30.7089 27.167 31.3986C27.2718 32.0884 27.5228 32.7477 27.9033 33.3325C28.2838 33.9172 28.785 34.4138 29.3732 34.789C29.9615 35.1641 30.6231 35.4091 31.3138 35.5076C31.6409 34.8747 32.0356 34.2809 32.4889 33.7387C31.896 33.8326 31.2887 33.7536 30.7396 33.5111C30.1901 33.2673 29.723 32.8696 29.3947 32.366C29.0665 31.8623 28.8912 31.2744 28.8901 30.6733C28.8889 30.0721 29.062 29.4835 29.3883 28.9786C29.7145 28.4738 30.1801 28.0742 30.7287 27.8283C31.2772 27.5825 31.8853 27.5008 32.4793 27.5931C33.0733 27.6855 33.6278 27.948 34.0758 28.3489C34.5237 28.7497 34.846 29.2718 35.0035 29.8519C35.1611 30.432 35.1472 31.0454 34.9636 31.6178C35.571 31.2522 36.2167 30.9542 36.8889 30.7289V30.6667C36.8883 29.5313 36.493 28.4315 35.7707 27.5556C34.8747 26.4711 33.5182 25.7778 32 25.7778ZM47.4258 33.6391C47.0081 33.1516 46.5436 32.7063 46.0391 32.3093C46.16 31.9129 46.2222 31.5093 46.2222 31.1111V30.2222C46.2222 29.9865 46.1286 29.7604 45.9619 29.5937C45.7952 29.427 45.5691 29.3333 45.3333 29.3333H38.5333C38.4077 28.7135 38.194 28.1148 37.8987 27.5556H45.3333C46.0406 27.5556 46.7189 27.8365 47.219 28.3366C47.719 28.8367 48 29.515 48 30.2222V31.1111C48 31.9644 47.8044 32.8249 47.4258 33.6391ZM30.5902 37.3333H25.7778C25.4273 37.3324 25.0801 37.4007 24.7562 37.5344C24.4322 37.6681 24.1379 37.8645 23.8901 38.1123C23.6423 38.3601 23.4459 38.6544 23.3122 38.9784C23.1785 39.3024 23.1102 39.6495 23.1111 40V40.8889C23.1111 44.3929 26.4178 48 32 48C32.7484 48 33.4578 47.9342 34.1227 47.8133C33.504 47.3477 32.9425 46.8106 32.4498 46.2133C32.2999 46.2194 32.15 46.2223 32 46.2222C27.4347 46.2222 24.8889 43.4453 24.8889 40.8889V40C24.8889 39.7643 24.9825 39.5382 25.1492 39.3715C25.3159 39.2048 25.542 39.1111 25.7778 39.1111H30.2613C30.3156 38.5096 30.4257 37.9145 30.5902 37.3333ZM44 20.8889C44 19.5923 43.4849 18.3488 42.5681 17.4319C41.6512 16.5151 40.4077 16 39.1111 16C37.8145 16 36.571 16.5151 35.6541 17.4319C34.7373 18.3488 34.2222 19.5923 34.2222 20.8889C34.2222 22.1855 34.7373 23.429 35.6541 24.3459C36.571 25.2627 37.8145 25.7778 39.1111 25.7778C40.4077 25.7778 41.6512 25.2627 42.5681 24.3459C43.4849 23.429 44 22.1855 44 20.8889ZM36 20.8889C36 20.0638 36.3278 19.2724 36.9112 18.689C37.4947 18.1056 38.286 17.7778 39.1111 17.7778C39.9362 17.7778 40.7276 18.1056 41.311 18.689C41.8944 19.2724 42.2222 20.0638 42.2222 20.8889C42.2222 21.714 41.8944 22.5053 41.311 23.0888C40.7276 23.6722 39.9362 24 39.1111 24C38.286 24 37.4947 23.6722 36.9112 23.0888C36.3278 22.5053 36 21.714 36 20.8889ZM40 48C42.1217 48 44.1566 47.1571 45.6569 45.6569C47.1571 44.1566 48 42.1217 48 40C48 37.8783 47.1571 35.8434 45.6569 34.3431C44.1566 32.8429 42.1217 32 40 32C37.8783 32 35.8434 32.8429 34.3431 34.3431C32.8429 35.8434 32 37.8783 32 40C32 42.1217 32.8429 44.1566 34.3431 45.6569C35.8434 47.1571 37.8783 48 40 48ZM40 35.5556C40.2357 35.5556 40.4618 35.6492 40.6285 35.8159C40.7952 35.9826 40.8889 36.2087 40.8889 36.4444V39.1111H43.5556C43.7913 39.1111 44.0174 39.2048 44.1841 39.3715C44.3508 39.5382 44.4444 39.7643 44.4444 40C44.4444 40.2357 44.3508 40.4618 44.1841 40.6285C44.0174 40.7952 43.7913 40.8889 43.5556 40.8889H40.8889V43.5556C40.8889 43.7913 40.7952 44.0174 40.6285 44.1841C40.4618 44.3508 40.2357 44.4444 40 44.4444C39.7643 44.4444 39.5382 44.3508 39.3715 44.1841C39.2048 44.0174 39.1111 43.7913 39.1111 43.5556V40.8889H36.4444C36.2087 40.8889 35.9826 40.7952 35.8159 40.6285C35.6492 40.4618 35.5556 40.2357 35.5556 40C35.5556 39.7643 35.6492 39.5382 35.8159 39.3715C35.9826 39.2048 36.2087 39.1111 36.4444 39.1111H39.1111V36.4444C39.1111 36.2087 39.2048 35.9826 39.3715 35.8159C39.5382 35.6492 39.7643 35.5556 40 35.5556Z" fill="#FBFBFB"/>
</svg>
