<svg width="64" height="64" viewBox="0 0 64 64" fill="none" xmlns="http://www.w3.org/2000/svg">
<circle cx="32" cy="32" r="32" fill="#B89869"/>
<path d="M47.8775 28.1368C47.5577 27.3359 46.5984 27.0155 45.7989 27.3359L41.1622 29.5785L37.8046 26.2146L34.447 22.8506L36.6854 18.2052C37.0051 17.4043 36.6854 16.4431 35.8859 16.1228C35.0865 15.8024 34.1272 16.1228 33.8074 16.9237L31.4091 21.8895L21.1763 23.4914C20.5368 23.6516 20.0571 24.1321 19.8972 24.7729L16.06 43.3546C15.9001 43.8351 16.06 44.4759 16.5396 44.7963L19.2577 47.5194C19.5775 47.8398 20.0571 48 20.3769 48H20.6967L39.2436 44.1555C39.8831 43.9953 40.3628 43.5148 40.5227 42.874L42.1215 32.622L47.078 30.2192C47.8775 29.8989 48.1972 28.9377 47.8775 28.1368ZM37.4848 41.2721L21.8159 44.4759L27.7317 38.549C30.13 39.6703 33.008 38.7091 34.1272 36.3063C35.2464 33.9035 34.2871 31.0202 31.8888 29.8989C30.13 29.0979 27.8916 29.4183 26.4526 30.86C25.0136 32.3017 24.6939 34.5443 25.4933 36.3063L19.5775 42.2333L22.7752 26.5349L32.0487 24.9331L35.5662 28.4572L39.0837 31.9813L37.4848 41.2721ZM28.2114 34.2239C28.2114 33.7433 28.3713 33.423 28.691 33.1026C29.3306 32.4619 30.2899 32.4619 30.9294 33.1026C31.569 33.7433 31.569 34.7045 30.9294 35.3452C30.2899 35.986 29.3306 35.986 28.691 35.3452C28.3713 35.0248 28.2114 34.5443 28.2114 34.2239Z" fill="#FBFBFB"/>
</svg>
