<svg width="64" height="64" viewBox="0 0 64 64" fill="none" xmlns="http://www.w3.org/2000/svg">
<circle cx="32" cy="32" r="32" fill="#B89869"/>
<path d="M47.5233 39.4542L37.5083 18.8172C36.939 17.6443 35.9081 16.7368 34.6425 16.2942C33.3768 15.8516 31.98 15.9103 30.7593 16.4572C29.5386 17.0042 28.5941 17.9947 28.1335 19.2108C27.6729 20.4269 27.7339 21.769 28.3032 22.9418L38.3191 43.5781C38.8882 44.7509 39.919 45.6585 41.1846 46.1012C42.4502 46.5438 43.8469 46.4853 45.0676 45.9384C46.2883 45.3916 47.2328 44.4012 47.6935 43.1852C48.1542 41.9692 48.0933 40.6271 47.5242 39.4542H47.5233Z" stroke="#FBFBFB" stroke-width="4"/>
<path d="M32.3595 33.26L27.3507 43.5781C27.0688 44.1589 26.6707 44.6806 26.179 45.1135C25.6872 45.5464 25.1116 45.882 24.4849 46.1012C23.8582 46.3203 23.1927 46.4187 22.5264 46.3907C21.8601 46.3627 21.2061 46.2089 20.6017 45.9381V45.9381C19.3812 45.3911 18.4368 44.4008 17.9762 43.1849C17.5156 41.969 17.5765 40.627 18.1456 39.4543L28.0735 18.9994" stroke="#FBFBFB" stroke-width="4" stroke-linecap="round"/>
<path d="M20.6021 45.9379C23.144 47.0768 26.1654 46.0201 27.3507 43.5778C28.536 41.1355 27.4363 38.2324 24.8944 37.0936C22.3526 35.9547 19.3311 37.0114 18.1458 39.4537C16.9606 41.8959 18.0603 44.799 20.6021 45.9379Z" stroke="#FBFBFB" stroke-width="4"/>
</svg>
