<svg width="33" height="33" viewBox="0 0 33 33" fill="none" xmlns="http://www.w3.org/2000/svg">
<path d="M27.8246 5.30271C24.8068 2.28336 20.7938 0.619276 16.5184 0.617676C7.70836 0.617676 0.538402 7.78443 0.535202 16.5945C0.533602 19.4106 1.26964 22.1595 2.66811 24.5821L0.5 32.6193L8.87322 30.64C11.2077 31.9136 13.8351 32.5841 16.5104 32.5857H16.5168C25.3252 32.5857 32.4952 25.4173 32.5 16.6089C32.5032 12.3383 30.8423 8.32366 27.8246 5.30271ZM24.338 22.3052C24.0052 23.238 22.3747 24.1372 21.6419 24.2029C20.909 24.2701 20.2226 24.5341 16.8496 23.2044C12.7902 21.6043 10.2269 17.4425 10.0285 17.1769C9.82846 16.9097 8.39799 15.012 8.39799 13.0471C8.39799 11.0822 9.43004 10.1157 9.79646 9.71733C10.1629 9.31731 10.5949 9.2181 10.8621 9.2181C11.1277 9.2181 11.3949 9.2181 11.627 9.22771C11.9118 9.23891 12.227 9.25331 12.5262 9.91734C12.8814 10.7078 13.6575 12.6823 13.7567 12.8823C13.8559 13.0823 13.9231 13.3159 13.7903 13.5815C13.6575 13.8471 13.5903 14.0135 13.3918 14.2472C13.1918 14.4808 12.9726 14.7672 12.7934 14.9464C12.5934 15.1448 12.3854 15.3624 12.6174 15.7608C12.851 16.1608 13.6511 17.4681 14.8383 18.5258C16.3648 19.8858 17.6497 20.3067 18.0497 20.5083C18.4497 20.7083 18.6817 20.6747 18.9153 20.4075C19.1489 20.1418 19.9138 19.2426 20.1794 18.8426C20.445 18.4426 20.7122 18.5098 21.0786 18.6426C21.445 18.7754 23.4083 19.7418 23.8068 19.9418C24.2068 20.1418 24.4724 20.2411 24.5716 20.4075C24.6708 20.5723 24.6708 21.3723 24.338 22.3052Z" fill="#FBFBFB"/>
</svg>
